<svg class="border shadow-md" viewBox="0 0 696.96 696.96" style="width: 696.96px; height: 696.96px;" xmlns="http://www.w3.org/2000/svg" preserveAspectRatio="none"><rect class="bg" id="bg" x="0" y="0" width="696.96" height="696.96" fill="#ffffff"/><path d="M 0 -43.56 L 0 -43.56&#10;                L 58.00 -8.56&#10;                L 139.392 -43.56 L 139.392 -43.56&#10;                L 219.39 -21.78&#10;                L 278.784 -43.56 L 278.784 -43.56&#10;                L 351.78 -4.56&#10;                L 418.176 -43.56 L 418.176 -43.56&#10;                L 487.18 -21.56&#10;                L 557.568 -43.56 L 557.568 -43.56&#10;                L 641.57 -21.78&#10;                L 696.96 -43.56 L 696.96 -43.56&#10;                L 748.96 -21.78&#10;                L 836.3520000000001 -43.56  V 696.96 H 0 V -43.56 Z" fill="#FCCF47"/><path d="M 0 0 L 0 0.00&#10;                L 46.46 21.78&#10;                L 139.392 0.00 L 139.392 0.00&#10;                L 238.39 21.78&#10;                L 278.784 0.00 L 278.784 0.00&#10;                L 325.25 21.78&#10;                L 418.176 0.00 L 418.176 0.00&#10;                L 472.18 24.00&#10;                L 557.568 0.00 L 557.568 0.00&#10;                L 604.03 22.00&#10;                L 696.96 0.00 L 696.96 0.00&#10;                L 764.96 21.78&#10;                L 836.3520000000001 0.00  V 696.96 H 0 V 0.00 Z" fill="#f0cd4d"/><path d="M 0 43.56 L 0 43.56&#10;                L 85.00 65.34&#10;                L 139.392 43.56 L 139.392 43.56&#10;                L 185.86 65.34&#10;                L 278.784 43.56 L 278.784 43.56&#10;                L 325.25 65.34&#10;                L 418.176 43.56 L 418.176 43.56&#10;                L 464.64 65.34&#10;                L 557.568 43.56 L 557.568 43.56&#10;                L 604.03 65.56&#10;                L 696.96 43.56 L 696.96 43.56&#10;                L 745.96 83.56&#10;                L 836.3520000000001 43.56  V 696.96 H 0 V 43.56 Z" fill="#e4cb53"/><path d="M 0 87.12 L 0 87.12&#10;                L 102.00 129.12&#10;                L 139.392 87.12 L 139.392 87.12&#10;                L 185.86 117.12&#10;                L 278.784 87.12 L 278.784 87.12&#10;                L 325.25 108.90&#10;                L 418.176 87.12 L 418.176 87.12&#10;                L 464.64 108.90&#10;                L 557.568 87.12 L 557.568 87.12&#10;                L 657.57 108.90&#10;                L 696.96 87.12 L 696.96 87.12&#10;                L 783.96 114.12&#10;                L 836.3520000000001 87.12  V 696.96 H 0 V 87.12 Z" fill="#d8c959"/><path d="M 0 130.68 L 0 130.68&#10;                L 78.00 165.68&#10;                L 139.392 130.68 L 139.392 130.68&#10;                L 185.86 152.46&#10;                L 278.784 130.68 L 278.784 130.68&#10;                L 367.78 152.46&#10;                L 418.176 130.68 L 418.176 130.68&#10;                L 501.18 152.46&#10;                L 557.568 130.68 L 557.568 130.68&#10;                L 606.57 156.68&#10;                L 696.96 130.68 L 696.96 130.68&#10;                L 743.42 152.46&#10;                L 836.3520000000001 130.68  V 696.96 H 0 V 130.68 Z" fill="#ccc75f"/><path d="M 0 174.24 L 0 174.24&#10;                L 101.00 216.24&#10;                L 139.392 174.24 L 139.392 174.24&#10;                L 185.86 202.24&#10;                L 278.784 174.24 L 278.784 174.24&#10;                L 352.78 198.24&#10;                L 418.176 174.24 L 418.176 174.24&#10;                L 492.18 209.24&#10;                L 557.568 174.24 L 557.568 174.24&#10;                L 604.03 196.02&#10;                L 696.96 174.24 L 696.96 174.24&#10;                L 743.42 196.02&#10;                L 836.3520000000001 174.24  V 696.96 H 0 V 174.24 Z" fill="#c0c565"/><path d="M 0 217.8 L 0 217.80&#10;                L 46.46 239.58&#10;                L 139.392 217.80 L 139.392 217.80&#10;                L 185.86 254.80&#10;                L 278.784 217.80 L 278.784 217.80&#10;                L 325.25 239.58&#10;                L 418.176 217.80 L 418.176 217.80&#10;                L 464.64 239.58&#10;                L 557.568 217.80 L 557.568 217.80&#10;                L 656.57 239.58&#10;                L 696.96 217.80 L 696.96 217.80&#10;                L 765.96 252.80&#10;                L 836.3520000000001 217.80  V 696.96 H 0 V 217.80 Z" fill="#b4c36b"/><path d="M 0 261.36 L 0 261.36&#10;                L 46.46 289.36&#10;                L 139.392 261.36 L 139.392 261.36&#10;                L 185.86 287.36&#10;                L 278.784 261.36 L 278.784 261.36&#10;                L 325.25 299.36&#10;                L 418.176 261.36 L 418.176 261.36&#10;                L 487.18 298.36&#10;                L 557.568 261.36 L 557.568 261.36&#10;                L 604.03 283.14&#10;                L 696.96 261.36 L 696.96 261.36&#10;                L 793.96 283.14&#10;                L 836.3520000000001 261.36  V 696.96 H 0 V 261.36 Z" fill="#a8c171"/><path d="M 0 304.92 L 0 304.92&#10;                L 51.00 339.92&#10;                L 139.392 304.92 L 139.392 304.92&#10;                L 185.86 329.92&#10;                L 278.784 304.92 L 278.784 304.92&#10;                L 325.25 326.70&#10;                L 418.176 304.92 L 418.176 304.92&#10;                L 464.64 326.70&#10;                L 557.568 304.92 L 557.568 304.92&#10;                L 626.57 326.70&#10;                L 696.96 304.92 L 696.96 304.92&#10;                L 774.96 333.92&#10;                L 836.3520000000001 304.92  V 696.96 H 0 V 304.92 Z" fill="#9cbf77"/><path d="M 0 348.48 L 0 348.48&#10;                L 65.00 370.26&#10;                L 139.392 348.48 L 139.392 348.48&#10;                L 185.86 370.26&#10;                L 278.784 348.48 L 278.784 348.48&#10;                L 325.25 370.26&#10;                L 418.176 348.48 L 418.176 348.48&#10;                L 464.64 383.48&#10;                L 557.568 348.48 L 557.568 348.48&#10;                L 604.03 370.26&#10;                L 696.96 348.48 L 696.96 348.48&#10;                L 743.42 388.48&#10;                L 836.3520000000001 348.48  V 696.96 H 0 V 348.48 Z" fill="#90bd7d"/><path d="M 0 392.04 L 0 392.04&#10;                L 46.46 421.04&#10;                L 139.392 392.04 L 139.392 392.04&#10;                L 185.86 423.04&#10;                L 278.784 392.04 L 278.784 392.04&#10;                L 325.25 428.04&#10;                L 418.176 392.04 L 418.176 392.04&#10;                L 464.64 428.04&#10;                L 557.568 392.04 L 557.568 392.04&#10;                L 642.57 417.04&#10;                L 696.96 392.04 L 696.96 392.04&#10;                L 793.96 413.82&#10;                L 836.3520000000001 392.04  V 696.96 H 0 V 392.04 Z" fill="#84bb83"/><path d="M 0 435.6 L 0 435.60&#10;                L 46.46 460.60&#10;                L 139.392 435.60 L 139.392 435.60&#10;                L 198.39 459.60&#10;                L 278.784 435.60 L 278.784 435.60&#10;                L 342.78 471.60&#10;                L 418.176 435.60 L 418.176 435.60&#10;                L 505.18 457.38&#10;                L 557.568 435.60 L 557.568 435.60&#10;                L 639.57 457.38&#10;                L 696.96 435.60 L 696.96 435.60&#10;                L 743.42 476.60&#10;                L 836.3520000000001 435.60  V 696.96 H 0 V 435.60 Z" fill="#78b989"/><path d="M 0 479.16 L 0 479.16&#10;                L 85.00 500.94&#10;                L 139.392 479.16 L 139.392 479.16&#10;                L 185.86 500.94&#10;                L 278.784 479.16 L 278.784 479.16&#10;                L 343.78 500.94&#10;                L 418.176 479.16 L 418.176 479.16&#10;                L 464.64 500.94&#10;                L 557.568 479.16 L 557.568 479.16&#10;                L 622.57 500.94&#10;                L 696.96 479.16 L 696.96 479.16&#10;                L 773.96 500.94&#10;                L 836.3520000000001 479.16  V 696.96 H 0 V 479.16 Z" fill="#6cb78f"/><path d="M 0 522.72 L 0 522.72&#10;                L 65.00 557.72&#10;                L 139.392 522.72 L 139.392 522.72&#10;                L 185.86 544.50&#10;                L 278.784 522.72 L 278.784 522.72&#10;                L 377.78 544.50&#10;                L 418.176 522.72 L 418.176 522.72&#10;                L 471.18 546.72&#10;                L 557.568 522.72 L 557.568 522.72&#10;                L 631.57 544.50&#10;                L 696.96 522.72 L 696.96 522.72&#10;                L 772.96 544.50&#10;                L 836.3520000000001 522.72  V 696.96 H 0 V 522.72 Z" fill="#60b595"/><path d="M 0 566.28 L 0 566.28&#10;                L 97.00 588.06&#10;                L 139.392 566.28 L 139.392 566.28&#10;                L 185.86 588.06&#10;                L 278.784 566.28 L 278.784 566.28&#10;                L 376.78 601.28&#10;                L 418.176 566.28 L 418.176 566.28&#10;                L 495.18 593.28&#10;                L 557.568 566.28 L 557.568 566.28&#10;                L 604.03 588.06&#10;                L 696.96 566.28 L 696.96 566.28&#10;                L 766.96 588.06&#10;                L 836.3520000000001 566.28  V 696.96 H 0 V 566.28 Z" fill="#54b39b"/><path d="M 0 609.84 L 0 609.84&#10;                L 46.46 631.62&#10;                L 139.392 609.84 L 139.392 609.84&#10;                L 185.86 632.84&#10;                L 278.784 609.84 L 278.784 609.84&#10;                L 379.78 633.84&#10;                L 418.176 609.84 L 418.176 609.84&#10;                L 492.18 631.62&#10;                L 557.568 609.84 L 557.568 609.84&#10;                L 604.03 642.84&#10;                L 696.96 609.84 L 696.96 609.84&#10;                L 766.96 631.62&#10;                L 836.3520000000001 609.84  V 696.96 H 0 V 609.84 Z" fill="#48b1a1"/><path d="M 0 653.4000000000001 L 0 653.40&#10;                L 91.00 686.40&#10;                L 139.392 653.40 L 139.392 653.40&#10;                L 185.86 681.40&#10;                L 278.784 653.40 L 278.784 653.40&#10;                L 361.78 675.18&#10;                L 418.176 653.40 L 418.176 653.40&#10;                L 482.18 694.40&#10;                L 557.568 653.40 L 557.568 653.40&#10;                L 619.57 675.18&#10;                L 696.96 653.40 L 696.96 653.40&#10;                L 787.96 686.40&#10;                L 836.3520000000001 653.40  V 696.96 H 0 V 653.40 Z" fill="#3cafa7"/></svg>